<mxfile host="app.diagrams.net" modified="2023-05-16T14:31:59.925Z" agent="Mozilla/5.0 (Macintosh; Intel Mac OS X 10_15_7) AppleWebKit/537.36 (KHTML, like Gecko) Chrome/113.0.0.0 Safari/537.36" etag="IZRIx4nhywxJ8ahmxSVX" version="21.3.0" type="device">
  <diagram name="ページ1" id="7nH0pDkPVK3NCeMsYzkz">
    <mxGraphModel dx="1026" dy="660" grid="1" gridSize="10" guides="1" tooltips="1" connect="1" arrows="1" fold="1" page="1" pageScale="1" pageWidth="827" pageHeight="1169" math="0" shadow="0">
      <root>
        <mxCell id="0" />
        <mxCell id="1" parent="0" />
        <mxCell id="NxT2qFPfRF19TAVG6sTY-3" value="" style="endArrow=classic;html=1;rounded=0;exitX=0.5;exitY=1;exitDx=0;exitDy=0;" parent="1" edge="1" source="NezlYnko66Ly7EBMuP0G-3">
          <mxGeometry width="50" height="50" relative="1" as="geometry">
            <mxPoint x="320" y="190" as="sourcePoint" />
            <mxPoint x="374" y="250" as="targetPoint" />
            <Array as="points">
              <mxPoint x="374" y="204" />
            </Array>
          </mxGeometry>
        </mxCell>
        <mxCell id="NxT2qFPfRF19TAVG6sTY-4" value="" style="shape=image;html=1;verticalAlign=top;verticalLabelPosition=bottom;labelBackgroundColor=#ffffff;imageAspect=0;aspect=fixed;image=https://cdn4.iconfinder.com/data/icons/ionicons/512/icon-social-github-128.png" parent="1" vertex="1">
          <mxGeometry x="308.5" y="270" width="131" height="131" as="geometry" />
        </mxCell>
        <mxCell id="NezlYnko66Ly7EBMuP0G-3" value="" style="shape=image;verticalLabelPosition=bottom;labelBackgroundColor=default;verticalAlign=top;aspect=fixed;imageAspect=0;image=https://static-00.iconduck.com/assets.00/nextjs-icon-512x309-yynfidez.png;" vertex="1" parent="1">
          <mxGeometry x="281.21" y="46" width="185.58" height="112" as="geometry" />
        </mxCell>
        <mxCell id="NezlYnko66Ly7EBMuP0G-4" value="" style="shape=image;verticalLabelPosition=bottom;labelBackgroundColor=default;verticalAlign=top;aspect=fixed;imageAspect=0;image=https://www.svgrepo.com/show/354512/vercel.svg;" vertex="1" parent="1">
          <mxGeometry x="244" y="448" width="260" height="260" as="geometry" />
        </mxCell>
        <mxCell id="NezlYnko66Ly7EBMuP0G-5" value="" style="endArrow=classic;html=1;rounded=0;entryX=0.5;entryY=0;entryDx=0;entryDy=0;exitX=0.5;exitY=1;exitDx=0;exitDy=0;" edge="1" parent="1">
          <mxGeometry width="50" height="50" relative="1" as="geometry">
            <mxPoint x="373.5" y="426" as="sourcePoint" />
            <mxPoint x="373.5" y="524" as="targetPoint" />
          </mxGeometry>
        </mxCell>
        <mxCell id="NezlYnko66Ly7EBMuP0G-6" value="" style="shape=image;verticalLabelPosition=bottom;labelBackgroundColor=default;verticalAlign=top;aspect=fixed;imageAspect=0;image=https://upload.wikimedia.org/wikipedia/commons/thumb/a/a7/React-icon.svg/2300px-React-icon.svg.png;" vertex="1" parent="1">
          <mxGeometry x="30" y="20" width="138.07" height="120" as="geometry" />
        </mxCell>
        <mxCell id="NezlYnko66Ly7EBMuP0G-7" value="React" style="text;strokeColor=none;fillColor=none;align=left;verticalAlign=middle;spacingLeft=4;spacingRight=4;overflow=hidden;points=[[0,0.5],[1,0.5]];portConstraint=eastwest;rotatable=0;whiteSpace=wrap;html=1;" vertex="1" parent="1">
          <mxGeometry x="74" y="155" width="80" height="30" as="geometry" />
        </mxCell>
      </root>
    </mxGraphModel>
  </diagram>
</mxfile>
